<?xml version="1.0" encoding="utf-8"?>
<!-- Generator: Adobe Illustrator 26.0.0, SVG Export Plug-In . SVG Version: 6.00 Build 0)  -->
<svg version="1.1" id="Capa_1" xmlns="http://www.w3.org/2000/svg" xmlns:xlink="http://www.w3.org/1999/xlink" x="0px" y="0px"
	 viewBox="0 0 64 64" style="enable-background:new 0 0 64 64;" xml:space="preserve">
<style type="text/css">
	.st0{fill:#0840AF;}
</style>
<path d="M46.29,54H17.71c-0.55,0-1-0.45-1-1V25l-3.89,3.9c-0.19,0.19-0.44,0.29-0.71,0.29l0,0c-0.27,0-0.52-0.1-0.71-0.29
	l-8.11-8.17c-0.39-0.39-0.39-1.02-0.01-1.41c0,0,0,0,0.01-0.01L17,5.61c0.19-0.19,0.44-0.29,0.71-0.29h6.22c0.55,0,1,0.45,1,1
	c0,3.9,3.17,7.07,7.07,7.07s7.07-3.17,7.07-7.07c0-0.55,0.45-1,1-1h6.22c0.27,0,0.52,0.1,0.71,0.29l13.71,13.7
	c0.39,0.39,0.39,1.02,0.01,1.41c0,0,0,0-0.01,0.01l-8.11,8.12c-0.19,0.19-0.44,0.29-0.71,0.29l0,0c-0.26,0-0.52-0.11-0.71-0.29
	L47.29,25v11.2c0,0.55-0.45,1-1,1s-1-0.45-1-1V22.54c0-0.4,0.25-0.77,0.62-0.92c0.37-0.16,0.8-0.07,1.09,0.21l4.89,4.9l6.7-6.73
	L45.88,7.32H41c-0.66,4.97-5.23,8.46-10.2,7.8c-4.06-0.54-7.25-3.74-7.8-7.8h-4.88L5.41,20l6.7,6.71L17,21.83
	c0.29-0.28,0.72-0.37,1.09-0.21c0.37,0.15,0.62,0.52,0.62,0.92V52h26.58v-3.56c0-0.55,0.45-1,1-1s1,0.45,1,1V53
	C47.29,53.55,46.84,54,46.29,54z"/>
<path class="st0" d="M55.78,54.3l-5.09-5.1c-0.74-0.72-1.83-0.94-2.79-0.56l-1.79-1.79c3.5-4.28,2.87-10.58-1.41-14.07
	s-10.58-2.87-14.07,1.41s-2.87,10.58,1.41,14.07c3.68,3.01,8.98,3.01,12.66,0l1.79,1.79c-0.39,0.96-0.17,2.05,0.56,2.78l5.1,5.1
	c1,1,2.63,1,3.63,0C56.78,56.93,56.78,55.3,55.78,54.3z M32.68,46.18c-3.11-3.14-3.09-8.2,0.05-11.31s8.2-3.09,11.31,0.05
	c3.09,3.12,3.09,8.15,0,11.27l0,0c-3.11,3.14-8.18,3.16-11.31,0.05C32.71,46.21,32.7,46.2,32.68,46.18z M54.36,56.51
	c-0.22,0.22-0.58,0.22-0.8,0l-5.09-5.09c-0.22-0.22-0.22-0.58,0-0.8l0,0c0.22-0.22,0.58-0.22,0.8,0l5.09,5.09
	C54.58,55.93,54.58,56.29,54.36,56.51z"/>
</svg>
