<?xml version="1.0" encoding="utf-8"?>
<!-- Generator: Adobe Illustrator 26.0.0, SVG Export Plug-In . SVG Version: 6.00 Build 0)  -->
<svg version="1.1" xmlns="http://www.w3.org/2000/svg" xmlns:xlink="http://www.w3.org/1999/xlink" x="0px" y="0px"
	 viewBox="0 0 1500 1500" style="enable-background:new 0 0 1500 1500;" xml:space="preserve">
<style type="text/css">
	.st0{display:none;fill:#2B3B47;}
	.st1{fill:#FFFFFF;}
</style>
<g id="Capa_1">
</g>
<g id="Capa_2">
	<path class="st0" d="M249.9,1249.91c0-331.83,0.01-663.67-0.09-995.5c0-3.75,0.84-4.59,4.59-4.59c330.33,0.1,660.67,0.1,991,0
		c3.75,0,4.59,0.84,4.59,4.59c-0.1,331.83-0.09,663.67-0.09,995.5C916.56,1249.91,583.23,1249.91,249.9,1249.91z M708.98,451.91
		l-0.12-0.08c-14.39-1.17-28.77-0.95-43.17-0.12c-2.21,0.88-6.7-2.73-6.36,3.22c-0.2,0.32-0.2,0.63,0,0.94c0,0.71,0,1.42-0.01,2.13
		c-0.08,6.66-0.23,13.31-0.23,19.97c0.05,106.66,0.12,213.31,0.2,319.97c0,1.63-0.44,3.35,0.63,4.85c-0.07,0.83-0.29,1.67-0.18,2.48
		c0.19,1.4-0.78,3.36,0.77,4.07c1.45,0.67,2.66-1,3.85-1.81c5.93-4.03,11.37-8.65,16.3-13.85c19.09-20.12,30.12-43.52,29.22-71.77
		c0.01-3.01,0.01-6.02,0.02-9.03c0-2.32,0-4.65,0-6.97c-0.01-2.67-0.02-5.34-0.02-8.01c-0.01-5.33-0.02-10.67-0.02-16
		c-0.05-37.34-0.09-74.67-0.14-112.01c-0.03-36.66-0.06-73.32-0.09-109.98c-0.01-0.67-0.02-1.34-0.03-2.01
		c-0.01-0.67-0.02-1.34-0.03-2.02C709.75,454.51,710.37,453.06,708.98,451.91z M715.91,873.91c-10.59,7.24-21.51,13.94-34.45,19.98
		c12.53,0,23.48,0,34.44,0c1.92,0.21,3.48,0.43,3.39-2.55c-0.17-5.55,0.32-11.12,0.15-16.67
		C719.33,870.95,717.55,872.09,715.91,873.91z M780,729.96c0.24,0.04,0.36-0.06,0.37-0.3c1.01-2.4,0.5-4.92,0.5-7.37
		c-0.05-43.8-0.17-87.6-0.21-131.4c-0.04-45.46-0.04-90.92,0.09-136.38c0.01-4-0.93-5.51-5.25-5.46
		c-16.48,0.19-32.97,0.07-49.46-0.14c-3.23-0.04-4.45,0.97-4.43,4.15c0.16,18.98,0.24,37.95,0.35,56.93
		c0.03,19.98,0.06,39.95,0.09,59.93c0,4.33,0.01,8.67,0.01,13c0.01,0.99,0.02,1.98,0.02,2.96c0,2.35,0,4.69,0,7.04
		c0,2.98,0,5.97-0.01,8.95c0,2.68,0,5.37,0,8.05c-0.01,39.99-0.01,79.99-0.02,119.98c-0.08,1.64-0.16,3.29-0.24,4.93
		c-0.81,4.61-1.62,9.21-2.43,13.82c-0.47,1.05-1.14,2.07-1.38,3.17c-3.82,17.36-12.94,31.86-24.2,45.25
		c-10.12,12.02-22.75,20.85-36.1,28.81c-7.3,2.73-14.31,6.23-21.95,8.04c-27.34,6.46-53.88,4.44-79.39-7.69
		c-3.52-1.67-4.37-1.13-4.33,2.8c0.16,18.66,0.12,37.33-0.02,55.99c-0.02,3.09,1.02,4.21,3.97,5.06
		c11.42,3.26,22.98,5.53,34.82,6.36c23.46,1.64,46.58,0.03,69.03-7.58c22.74-6.76,42.77-18.28,60.27-34.25
		c0.3-0.12,0.66-0.16,0.89-0.36c22.7-19.99,40.26-43.63,50.41-72.29c2.73-7.71,6.02-15.5,5.36-24.05c0.16-0.25,0.22-0.52,0.18-0.81
		c1.78-1.07,1.58-2.57,0.92-4.18c0.03-0.6,0.06-1.2,0.09-1.8c0.37-0.51,1.05-1.01,1.06-1.52C779.14,743.03,780.76,736.56,780,729.96
		z M888.82,597.75c-1.37,10.76-2.66,21.47-6.85,31.71c-2.43,5.94-6.63,10.66-9.3,16.34c-1.34,1.46-2.68,2.92-4.02,4.39
		c-10.64,11.63-22.16,21.95-37.71,26.72c-11.02,3.38-22.29,3.23-33.59,2.87c-3.41-0.11-4.75,0.86-4.6,4.44
		c0.27,6.31,0.25,12.63,0.12,18.94c-0.25,12.44,0.55,24.88-0.78,37.33c-0.38,3.59-2.5,7.87,1.04,11.31
		c0.38,0.73,0.71,1.49,1.16,2.18c16.07,24.67,32.08,49.37,48.24,73.97c8.39,12.77,16.21,25.92,25.25,38.26
		c5.46,8.64,10.95,17.26,16.37,25.92c0.91,1.45,2.13,1.91,3.75,1.91c22.64-0.01,45.28-0.01,67.93,0.02c2.82,0,3.17-0.92,1.65-3.2
		c-3.23-4.84-6.27-9.81-9.51-14.65c-6.45-9.64-12.06-19.85-19.19-29.04c-1.32-2.29-2.56-4.64-3.98-6.86
		c-8.6-13.42-17.08-26.92-25.93-40.18c-15.36-23.01-28.94-47.2-45.69-69.29c5.91-3.38,12.38-5.49,18.72-7.77
		c21.37-7.68,39.42-19.65,52.12-38.92c7.96-12.07,15.67-24.24,19.89-38.24c2.37-4.05,2.88-8.71,3.96-13.11
		c4.78-19.42,3.99-39.19,2.51-58.88c-0.51-6.79-0.78-13.86-4.41-20.06c0.23-2.21-0.35-4.25-1-6.34
		c-4.54-14.57-12.61-27.13-22.28-38.7c-32.94-39.42-75.68-57.28-126.51-57.25c-2.89,0-3.67,1.09-3.65,3.83
		c0.12,16.99,0.16,33.98,0.07,50.97c-0.02,2.99,1.28,3.47,3.86,3.65c6.3,0.45,12.63,0.93,18.85,1.98
		c27.32,4.59,49.44,17.2,63.57,41.89c0.72,1.26,1.19,2.83,2.95,3.14c3.76,11.33,6.13,22.95,7.05,34.85
		C888.87,593.85,888.85,595.8,888.82,597.75z M927.98,992.32c0.35,0.15,0.71,0.31,1.06,0.46c0,11.66,0.2,23.32-0.1,34.97
		c-0.12,4.41,1.89,4.74,5.38,4.82c3.59,0.09,4.89-0.75,4.86-4.68c-0.2-21.49-0.08-42.99-0.14-64.48c0-1.32,0.75-2.95-1.1-4.27
		c-10.62,16.22-21.22,32.34-31.74,48.5c-3.3,5.07-3.22,5.13-6.69-0.19c-9.65-14.78-19.28-29.56-28.98-44.3
		c-0.89-1.35-1.36-3.34-3.77-3.7c0,23.46,0.04,46.61-0.05,69.76c-0.01,2.83,1.3,3.17,3.66,3.29c4.2,0.23,6.77-0.2,6.55-5.71
		c-0.46-11.37-0.14-22.78-0.14-35.58c1.62,2.23,2.4,3.22,3.09,4.27c6.55,10.04,13.08,20.09,19.63,30.14
		c3.42,5.25,3.41,5.22,6.81-0.01C913.53,1014.51,920.76,1003.42,927.98,992.32z M655.27,957.72c-21.57-0.07-38.1,16.16-38.26,37.58
		c-0.15,20.64,16.55,37.51,37.28,37.65c21.1,0.14,38.18-16.41,38.36-37.17C692.83,974.83,676.09,957.79,655.27,957.72z
		 M719.75,995.01c0.02,0,0.04,0,0.07,0c0,10.99,0.17,21.98-0.09,32.96c-0.09,3.95,1.41,4.69,4.94,4.63
		c3.56-0.06,5.58-0.49,5.27-4.87c-0.41-5.8-0.13-11.65-0.06-17.47c0.01-1.22-0.47-2.66,1.17-3.47c3.11-1.52,9.97,0.29,11.9,3.23
		c3.57,5.42,7.58,10.6,10.57,16.32c2.76,5.27,6.53,6.76,12.09,6.26c3.54-0.32,4.04-1.13,2.1-4.05c-4.23-6.37-8.19-12.93-12.46-19.27
		c-1.95-2.89-3.27-4.99,1.57-6.17c2.6-0.63,4.61-2.62,6.33-4.7c11.65-14.13,5.07-34.76-12.68-39.27
		c-9.31-2.36-18.89-0.77-28.35-1.05c-2.86-0.08-2.36,2.2-2.36,3.96C719.75,973.04,719.75,984.03,719.75,995.01z M797.07,995.33
		c0,10.99,0.14,21.99-0.08,32.97c-0.07,3.61,1.17,4.51,4.58,4.46c11.16-0.19,22.32-0.35,33.47,0.03c5.03,0.17,4.53-2.52,4.72-5.85
		c0.24-4.1-1.78-4.59-5.13-4.49c-7.99,0.23-15.98,0.15-23.97,0.29c-2.45,0.04-3.66-0.65-3.58-3.4c0.16-5.15,0.12-10.31-0.03-15.46
		c-0.08-2.78,0.92-3.93,3.75-3.83c5.49,0.19,10.98,0.11,16.47,0.3c3.48,0.12,4.67-1.38,4.38-4.77c-0.25-2.82,0.41-5.75-4.14-5.48
		c-4.98,0.29-10-0.15-14.98,0.12c-3.81,0.21-5.51-0.84-5.18-4.96c0.33-4.14,0.28-8.33,0.01-12.48c-0.23-3.64,0.86-5.02,4.72-4.88
		c7.82,0.28,15.66-0.17,23.48,0.17c4.54,0.2,4.06-2.49,4.18-5.36c0.12-3.04-0.24-4.91-4.19-4.82c-11.32,0.26-22.65,0.2-33.97,0
		c-3.44-0.06-4.63,0.93-4.56,4.47C797.18,973.35,797.06,984.34,797.07,995.33z M560.69,995.34c0,11,0.13,21.99-0.08,32.99
		c-0.07,3.4,1.13,4.28,4.29,4.24c11.33-0.14,22.66-0.24,33.99,0c4.05,0.09,4.12-1.97,4.07-4.93c-0.05-2.99,0.25-5.57-4.21-5.39
		c-7.49,0.3-15-0.16-22.49,0.15c-4.29,0.18-5.73-0.98-5.66-5.5c0.27-18.16-0.02-36.32,0.23-54.48c0.06-4.2-1.78-4.52-5.09-4.48
		c-3.2,0.04-5.26,0.13-5.14,4.41C560.91,973.34,560.7,984.34,560.69,995.34z M873.26,1068.88c0.42,0.07,0.84,0.15,1.27,0.22
		c0,2.46-0.01,4.92,0.01,7.39c0.01,0.89,0.33,1.68,1.32,1.8c1.3,0.16,1.75-0.7,1.75-1.82c0.02-6.05,0.01-12.09,0.01-18.14
		c-0.33-0.07-0.66-0.15-0.99-0.22c-3.07,4.58-6.15,9.16-9.52,14.19c-3.34-5-6.43-9.64-10.36-15.53c0,7.55,0,13.62,0,19.68
		c0,1.14,0.33,2.06,1.66,1.87c1.27-0.18,1.35-1.26,1.35-2.3c0-2.53,0-5.05,0-9.03c3.01,4.4,5.11,7.47,7.39,10.81
		C869.39,1074.52,871.32,1071.7,873.26,1068.88z M605.76,1056.89c-6.04-0.02-10.77,4.6-10.87,10.63
		c-0.11,6.18,4.83,11.19,10.97,11.14c5.67-0.05,10.75-5.26,10.76-11.01C616.63,1061.81,611.69,1056.91,605.76,1056.89z
		 M701.95,1078.02c-4.18-4.03-4.37-7.59-0.95-12.14c2.06-2.75-0.11-6.35-3.55-8.11c-2.01-1.03-4.22-0.64-6.35-0.85
		c-2.96-0.29-4.18,0.63-4,3.82c0.26,4.63,0.02,9.29,0.11,13.93c0.03,1.31-0.87,3.38,1.47,3.55c2.53,0.18,1.48-2.01,1.72-3.28
		c0.26-1.36-0.61-3.26,1.37-3.8c1.9-0.52,2.32,1.41,3.26,2.48C696.69,1075.5,697.07,1079.17,701.95,1078.02z M663.3,1056.87
		c-5.97-0.19-10.95,4.37-11.29,10.34c-0.34,6.02,4.68,11.35,10.76,11.43c5.89,0.08,10.9-4.76,11.01-10.66
		C673.9,1062.01,669.23,1057.06,663.3,1056.87z M917.62,1067.71c0.02,0,0.03,0,0.05,0c0,2.66,0.02,5.32-0.01,7.99
		c-0.01,1.17-0.2,2.21,1.4,2.72c5.44,1.72,12.47-1.93,14.07-7.44c1.85-6.37-1.62-12.41-7.93-13.78c-6.37-1.38-7.52-0.47-7.58,6.02
		C917.61,1064.72,917.62,1066.22,917.62,1067.71z M566.07,1067.46c0,2.65,0.01,5.3,0,7.94c-0.01,1.34-0.17,2.78,1.75,2.92
		c4.57,0.33,9.11,0.25,12.15-3.9c2.93-3.99,2.91-8.37,0.58-12.61c-2.06-3.76-8.59-6.36-12.65-4.66c-3.61,1.52-1.19,5.19-1.8,7.84
		C565.92,1065.77,566.08,1066.63,566.07,1067.46z M833.96,1056.65c-2.99,7-5.55,12.88-8,18.81c-0.32,0.78-1.5,1.76-0.34,2.6
		c1.19,0.86,2.01-0.06,2.89-0.96c3.07-3.16,7.88-3.2,10.79-0.06c0.86,0.93,1.68,1.88,2.86,1.07c1.45-1.01-0.02-2.09-0.4-3.01
		C839.38,1069.3,836.89,1063.54,833.96,1056.65z M741.11,1078.73c2.9-0.44,5.6-1.74,6.23-5.15c0.77-4.13-2.07-5.89-5.38-7.2
		c-1.95-0.77-4.79-1.33-3.69-4.23c1.11-2.96,3.38-2.61,5.57-0.71c0.86,0.75,1.98,0.61,2.56-0.37c0.5-0.84-0.35-1.49-0.86-2.12
		c-0.99-1.23-2.31-1.92-3.86-2.02c-3.45-0.22-5.91,1.33-6.66,4.69c-0.83,3.7,1.2,5.91,4.56,7.2c2.16,0.83,5.71,1.07,4.24,4.63
		c-1.12,2.7-3.62,2.37-5.79,0.55c-0.86-0.72-2.05-0.68-2.66,0.17c-0.74,1.03,0.37,1.8,1,2.48
		C737.55,1077.93,739.1,1078.49,741.11,1078.73z M783.17,1068.86c0,1.99-0.1,3.99,0.04,5.98c0.09,1.29-0.82,3.52,1.6,3.37
		c2.21-0.13,1.4-2.27,1.44-3.61c0.1-3.32,0.1-6.65,0-9.96c-0.08-2.68-0.18-5.15,3.69-4.74c1.08,0.11,2.03-0.35,1.87-1.68
		c-0.17-1.39-1.35-1.22-2.3-1.24c-3.16-0.04-6.31-0.04-9.47-0.02c-0.97,0-2.15-0.16-2.34,1.2c-0.25,1.74,1.06,1.92,2.24,1.75
		c3.39-0.49,3.32,1.69,3.26,3.97C783.15,1065.54,783.18,1067.2,783.17,1068.86z M630.02,1067.63c-0.03,10.99-0.03,11.02,8.41,10.74
		c1.32-0.04,3.55,0.84,3.62-1.36c0.08-2.65-2.45-1.86-3.8-1.66c-4.68,0.69-5.69-1.48-5.31-5.63c0.32-3.46,0.06-6.96,0.02-10.45
		c-0.01-0.98-0.03-2.15-1.39-2.19c-1.34-0.04-1.53,1.06-1.54,2.08C630,1061.99,630.02,1064.81,630.02,1067.63z M764.01,1067.54
		c-0.01,0-0.02,0-0.02,0c0-2.33,0.1-4.67-0.04-7c-0.07-1.29,0.76-3.45-1.57-3.4c-1.91,0.04-1.34,1.98-1.35,3.18
		c-0.06,4.83-0.07,9.66,0.02,14.49c0.03,1.29-0.86,3.47,1.57,3.41c1.94-0.05,1.32-1.99,1.36-3.19
		C764.08,1072.54,764.01,1070.04,764.01,1067.54z"/>
	<g>
		<path class="st1" d="M640.56,702.56c0.2-0.22,0.36-0.51,0.47-0.88C640.92,702.05,640.76,702.34,640.56,702.56z"/>
		<path class="st1" d="M637.6,741.39C637.6,741.39,637.6,741.39,637.6,741.39c0.2,0.22,0.36,0.46,0.5,0.69
			C637.96,741.84,637.8,741.61,637.6,741.39z"/>
		<path class="st1" d="M636.69,702.44C636.69,702.44,636.69,702.44,636.69,702.44c-0.57,2.31,0.27,4.48,0.72,6.7
			C636.96,706.93,636.12,704.75,636.69,702.44z"/>
		<path class="st1" d="M637.59,731.69l0.01,0.04c0,1.07,0,2.15,0,3.22c0-1.07,0-2.15,0-3.22
			C637.6,731.73,637.59,731.69,637.59,731.69c-0.43-1.54-0.75-3.08-0.97-4.62C636.84,728.61,637.16,730.15,637.59,731.69z"/>
		<path class="st1" d="M636.6,819.45C636.6,819.45,636.6,819.45,636.6,819.45c0.01-3.35,0.01-6.7,0.02-10.05
			c3.06-2.14,5.07-4.49,4.74-7.44c0.33,2.95-1.68,5.3-4.74,7.44C636.61,812.75,636.61,816.1,636.6,819.45z"/>
		<path class="st1" d="M688.87,782.76L688.87,782.76c0.27,0.02,0.52,0.07,0.74,0.13C689.38,782.83,689.13,782.78,688.87,782.76z"/>
		<path class="st1" d="M637.71,830.02c0.27-3.51,0.5-7.05-1.05-10.44C638.21,822.97,637.98,826.52,637.71,830.02z"/>
		<path class="st1" d="M639.83,703.01c0.28-0.08,0.52-0.23,0.72-0.45C640.36,702.78,640.11,702.93,639.83,703.01z"/>
		<path class="st1" d="M716.95,779.41C716.95,779.41,716.95,779.41,716.95,779.41c-0.09-0.23-0.14-0.56-0.24-0.75
			C716.82,778.85,716.86,779.18,716.95,779.41z"/>
		<path class="st1" d="M724.67,836.26c6.74-0.03,13.49-0.01,20.23-0.01c6.54,0.01,13.09-0.02,19.63,0.03
			c-6.54-0.05-13.09-0.02-19.63-0.03C738.15,836.25,731.41,836.23,724.67,836.26z"/>
		<path class="st1" d="M712.79,735.65c0.03-0.82-0.01-1.64-0.29-2.41C712.78,734.01,712.82,734.83,712.79,735.65z"/>
		<path class="st1" d="M772.81,840.19c0.3,0.13,0.67,0.44,0.89,0.36C773.48,840.63,773.11,840.32,772.81,840.19
			C772.81,840.19,772.81,840.19,772.81,840.19z"/>
		<path class="st1" d="M711.57,731.77C711.57,731.77,711.57,731.77,711.57,731.77c-0.02-17.33-0.02-34.66-0.09-52
			C711.55,697.11,711.55,714.44,711.57,731.77z"/>
		<path class="st1" d="M780.36,650.23c-0.04-55.26-0.05-110.53,0.1-165.79c0.01-4.86-1.11-6.7-6.26-6.64
			c-19.65,0.23-39.3,0.09-58.95-0.17c-3.85-0.05-5.31,1.18-5.28,5.04c0.19,23.07,0.29,46.14,0.41,69.21
			c0.04,24.28,0.07,48.57,0.11,72.85c0,5.27,0.01,10.53,0.01,15.8c0.01,1.2,0.02,2.4,0.03,3.6l0,0c0,2.85,0,5.71-0.01,8.56
			c0,3.63,0,7.25-0.01,10.88c0,3.26,0,6.52,0,9.79c-0.01,48.62-0.02,97.23-0.02,145.85c-0.09,2-0.19,4-0.28,5.99
			c4.4,0.13,5.74,2.58,6.36,5.47c-0.62-2.89-1.95-5.34-6.36-5.47c-0.96,5.6-1.93,11.2-2.9,16.8c-0.56,1.28-1.35,2.51-1.64,3.85
			c-4.56,21.11-15.42,38.74-28.85,55.01c-12.06,14.61-27.12,25.35-43.02,35.02c-8.7,3.32-17.06,7.58-26.16,9.77
			c-32.59,7.85-64.22,5.4-94.62-9.35c-4.19-2.03-5.2-1.38-5.17,3.4c0.18,22.69,0.14,45.38-0.03,68.07
			c-0.03,3.75,1.21,5.12,4.74,6.15c13.61,3.96,27.39,6.73,41.5,7.73c27.96,1.99,55.52,0.04,82.28-9.22
			c27.1-8.21,50.97-22.22,71.83-41.64c0.36-0.14,0.79-0.2,1.06-0.44c27.05-24.3,47.98-53.04,60.09-87.88
			c3.26-9.38,7.17-18.84,6.39-29.24c0.19-0.3,0.26-0.63,0.22-0.98c2.13-1.3,1.88-3.13,1.09-5.08c0.04-0.73,0.07-1.46,0.11-2.19
			c0.44-0.62,1.25-1.23,1.26-1.85c0.13-7.97,2.07-15.84,1.17-23.85c0.28,0.05,0.43-0.07,0.45-0.37c0,0,0,0,0-0.01
			c1.2-2.91,0.59-5.97,0.59-8.95C780.56,756.72,780.4,703.48,780.36,650.23z M711.57,731.77c-0.02-17.33-0.02-34.66-0.09-52
			C711.55,697.11,711.55,714.44,711.57,731.77C711.57,731.77,711.57,731.77,711.57,731.77z M712.79,735.65
			c0.03-0.82-0.01-1.64-0.29-2.41C712.78,734.01,712.82,734.83,712.79,735.65z M716.95,779.41c-0.09-0.23-0.14-0.56-0.24-0.75
			C716.82,778.85,716.86,779.18,716.95,779.41C716.95,779.41,716.95,779.41,716.95,779.41z M744.9,836.26
			c-6.74-0.01-13.49-0.02-20.23,0.01C731.41,836.23,738.15,836.25,744.9,836.26c6.54,0.01,13.09-0.02,19.63,0.03
			C757.99,836.24,751.44,836.26,744.9,836.26z M772.81,840.19C772.81,840.19,772.81,840.19,772.81,840.19
			c0.3,0.14,0.67,0.44,0.89,0.36C773.48,840.63,773.11,840.32,772.81,840.19z"/>
		<path class="st1" d="M991.1,1014.9c-3.85-5.88-7.47-11.93-11.33-17.81c-7.69-11.72-14.37-24.13-22.87-35.3
			c-1.58-2.78-3.05-5.64-4.75-8.34c-10.26-16.31-20.36-32.72-30.9-48.84c-18.3-27.98-34.49-57.37-54.45-84.24
			c7.04-4.11,14.75-6.68,22.31-9.45c25.47-9.34,46.98-23.89,62.12-47.31c9.49-14.67,18.68-29.46,23.71-46.48
			c2.83-4.92,3.43-10.59,4.73-15.94c5.7-23.61,4.76-47.64,2.99-71.58c-0.61-8.25-0.93-16.84-5.26-24.39
			c0.28-2.68-0.42-5.17-1.19-7.71c-5.41-17.71-15.03-32.98-26.55-47.04c-39.26-47.93-90.2-69.63-150.79-69.59
			c-3.44,0-4.37,1.33-4.35,4.66c0.14,20.65,0.19,41.31,0.08,61.96c-0.02,3.63,1.52,4.21,4.61,4.44c7.51,0.54,15.05,1.13,22.46,2.4
			c32.56,5.58,58.93,20.91,75.77,50.93c0.86,1.53,1.41,3.44,3.51,3.82c0.07-0.06,0.14-0.11,0.22-0.16c-0.07,0.05-0.15,0.1-0.22,0.16
			c4.48,13.78,7.31,27.9,8.41,42.37c-0.03,2.37-0.06,4.74-0.1,7.1c-1.63,13.08-3.17,26.1-8.17,38.55
			c-2.9,7.22-7.9,12.96-11.08,19.87c-1.6,1.78-3.2,3.55-4.79,5.33c-12.68,14.14-26.41,26.69-44.95,32.49
			c-13.14,4.11-26.57,3.92-40.03,3.49c-4.06-0.13-5.66,1.04-5.48,5.39c0.32,7.66,0.3,15.35,0.14,23.03
			c-0.3,15.12,0.66,30.24-0.93,45.38c-0.46,4.37-2.98,9.57,1.24,13.75c0.46,0.89,0.85,1.82,1.38,2.65
			c19.15,29.98,38.23,60.01,57.5,89.92c10,15.53,19.31,31.52,30.1,46.52c6.51,10.5,13.04,20.99,19.52,31.51
			c1.09,1.77,2.54,2.32,4.47,2.32c26.99-0.02,53.97-0.01,80.96,0.03C992.5,1018.79,992.91,1017.66,991.1,1014.9z"/>
		<path class="st1" d="M635.75,488.7c-0.1,8.09-0.28,16.18-0.27,24.27c0.06,129.66,0.14,259.31,0.24,388.97
			c0,1.98-0.52,4.07,0.75,5.9c-0.08,1-0.34,2.03-0.21,3.01c0.23,1.7-0.92,4.08,0.92,4.95c1.73,0.81,3.17-1.22,4.59-2.2
			c7.07-4.89,13.55-10.52,19.43-16.84c22.75-24.45,35.9-52.9,34.83-87.25c0.01-3.66,0.01-7.32,0.02-10.98c0-2.82,0-5.65,0.01-8.47
			c-0.01-3.25-0.02-6.49-0.03-9.74c-0.01-6.48-0.02-12.97-0.03-19.45c-0.05-45.39-0.11-90.78-0.16-136.16
			c-0.04-44.56-0.08-89.13-0.11-133.69c-0.01-0.81-0.02-1.63-0.04-2.44c-0.01-0.82-0.02-1.63-0.04-2.45
			c0.21-1.68,0.94-3.44-0.71-4.84c0,0-0.14-0.1-0.14-0.1c-17.15-1.42-34.29-1.16-51.45-0.14c-2.64,1.07-7.99-3.32-7.58,3.91
			c-0.24,0.38-0.24,0.77,0,1.15C635.76,486.97,635.76,487.83,635.75,488.7c0.94,1.75,0.82,3.62,0.72,5.47
			C636.58,492.31,636.69,490.45,635.75,488.7z M688.87,782.76c0.27,0.02,0.52,0.07,0.74,0.13
			C689.38,782.83,689.13,782.78,688.87,782.76L688.87,782.76z M637.71,830.02c0.27-3.51,0.5-7.05-1.05-10.44
			C638.21,822.97,637.98,826.52,637.71,830.02z M640.56,702.56c0.2-0.22,0.36-0.51,0.47-0.88
			C640.92,702.05,640.76,702.34,640.56,702.56c-0.2,0.22-0.44,0.37-0.72,0.45C640.11,702.93,640.36,702.78,640.56,702.56z
			 M641.36,801.96c0.33,2.95-1.68,5.3-4.74,7.44c-0.01,3.35-0.01,6.7-0.02,10.05c0,0,0,0,0,0c0.01-3.35,0.01-6.7,0.02-10.04
			C639.68,807.27,641.69,804.91,641.36,801.96z M637.6,741.39c0.2,0.22,0.36,0.46,0.5,0.69C637.96,741.84,637.8,741.61,637.6,741.39
			C637.6,741.39,637.6,741.39,637.6,741.39z M637.6,731.73c0,1.07,0,2.15,0,3.22C637.6,733.88,637.6,732.81,637.6,731.73l-0.01-0.04
			c-0.43-1.54-0.75-3.08-0.97-4.62c0.22,1.54,0.54,3.08,0.97,4.62C637.59,731.69,637.6,731.73,637.6,731.73z M636.69,702.44
			C636.69,702.44,636.69,702.44,636.69,702.44c-0.57,2.31,0.27,4.49,0.72,6.7C636.96,706.93,636.12,704.75,636.69,702.44z"/>
		<path class="st1" d="M707.39,995.2c-0.13-4.52-2.25-3.15-4.21-0.92c-12.62,8.8-25.63,16.95-41.06,24.29c14.93,0,27.99,0,41.05,0
			c2.28,0.25,4.14,0.52,4.04-3.1C707.01,1008.72,707.59,1001.95,707.39,995.2z"/>
	</g>
</g>
</svg>
